<svg xmlns="http://www.w3.org/2000/svg" viewBox="0 0 16 16"><path d="M6.33 12.39c-.88-.85-1.72-1.94-2.42-3.17C3.2 8 2.67 6.73 2.38 5.54c-.2-.77-.29-1.47-.28-2.09.53-.32 1.19-.59 1.95-.81.46-.13.96-.24 1.48-.32l.03.7c.04.52.1 1.07.17 1.61-.34.1-.64.23-.88.37-.01.33.04.71.14 1.12.16.64.44 1.32.82 1.97.38.65.82 1.24 1.29 1.69.3.29.6.52.89.68V.04C4.65.04 1.72.91.09 2.27c-.36 2.1.35 5.07 2.02 7.96 1.67 2.9 3.89 5 5.89 5.74v-2.3c-.54-.3-1.11-.74-1.67-1.28z"/><path opacity=".5" d="M15.91 2.27C14.27.9 11.35.04 8 .04v10.43c.29-.16.59-.39.89-.68.47-.46.92-1.04 1.29-1.69.38-.65.66-1.33.82-1.97.1-.41.15-.79.15-1.12a4.01 4.01 0 0 0-.88-.38c.08-.54.14-1.09.17-1.61.02-.24.03-.47.03-.69.52.08 1.01.19 1.48.32.76.21 1.41.49 1.94.8.01.62-.08 1.33-.28 2.09-.3 1.19-.83 2.46-1.53 3.68s-1.54 2.31-2.42 3.17c-.56.54-1.13.98-1.66 1.28v2.3c2-.74 4.22-2.84 5.89-5.73 1.67-2.91 2.38-5.88 2.02-7.97z"/></svg>