<svg xmlns="http://www.w3.org/2000/svg" viewBox="0 0 594.9 1164.2">
  <path fill-rule="evenodd" clip-rule="evenodd" fill="#595A5C" d="M19.4 368.6H4.5c-2.5 0-4.5-2-4.5-4.5V192.2c0-2.5 2-4.5 4.5-4.5h14.9c2.5 0 4.5 2 4.5 4.5v171.9c0 2.5-2 4.5-4.5 4.5z"/>
  <path fill-rule="evenodd" clip-rule="evenodd" fill="#6E6F72" d="M98.7 0h400.5c52.8 0 95.6 42.8 95.6 95.6v972.9c0 52.8-42.8 95.6-95.6 95.6H98.7c-52.8 0-95.6-42.8-95.6-95.6V95.6C3.1 42.8 45.9 0 98.7 0z"/>
  <path fill-rule="evenodd" clip-rule="evenodd" fill="#34393F" d="M102.4 9.2H497c49.5 0 89.7 40.1 89.7 89.7v965.5c0 49.5-40.1 89.7-89.7 89.7H102.4c-49.5 0-89.7-40.1-89.7-89.7V98.8c0-49.5 40.2-89.6 89.7-89.6z"/>
  <path fill-rule="evenodd" clip-rule="evenodd" fill="#14171A" d="M102 19.6h395.2c42.3 0 76.6 34.3 76.6 76.6v970.6c0 42.3-34.3 76.6-76.6 76.6H102c-42.3 0-76.6-34.3-76.6-76.6V96.3c0-42.4 34.3-76.7 76.6-76.7z"/>
  <path fill-rule="evenodd" clip-rule="evenodd" fill="#010101" d="M35.1 117.5h529.1v928.1H35.1V117.5z"/>
  <path opacity=".5" fill-rule="evenodd" clip-rule="evenodd" fill="#BDBEC0" d="M150.8 1084.8h-26.9v6h-6v16.4h26.9v-6h6v-16.4zm-9 19.4h-20.9v-10.5h3v7.5h17.9v3zm0-6h-14.9v-4.5h14.9v4.5zm6 0h-3v-7.5h-17.9v-3h20.9v10.5z"/>
  <path fill-rule="evenodd" clip-rule="evenodd" fill="#595A5C" d="M251.8 1075.8h95.6c8.3 0 14.9 6.7 14.9 14.9v10.5c0 8.3-6.7 14.9-14.9 14.9h-95.6c-8.3 0-14.9-6.7-14.9-14.9v-10.5c0-8.2 6.7-14.9 14.9-14.9z"/>
  <path fill-rule="evenodd" clip-rule="evenodd" fill="#14171A" d="M252.9 1077.5h93.5c7.5 0 13.7 6.1 13.7 13.7v9.6c0 7.5-6.1 13.7-13.7 13.7h-93.5c-7.5 0-13.7-6.1-13.7-13.7v-9.6c.1-7.5 6.2-13.7 13.7-13.7z"/>
  <path opacity=".5" fill="#BDBEC0" d="M484.4 1107.9h-22.5v-4h22.5c2.3-.5 4-2.5 4-5 0-2.4-1.7-4.5-4-5h-22.1v5.9l-17.2-7.9 17.2-7.9v5.9h22.1c4.5.5 8 4.3 8 8.9.1 4.8-3.5 8.6-8 9.1z"/>
  <path fill-rule="evenodd" clip-rule="evenodd" fill="#34393F" d="M253.5 37h92.3c2.9 0 5.2 2.4 5.2 5.2 0 2.9-2.3 5.2-5.2 5.2h-92.3c-2.9 0-5.2-2.4-5.2-5.2 0-2.9 2.3-5.2 5.2-5.2z"/>
  <path fill="#010101" d="M345.8 48h-92.3c-3.2 0-5.7-2.6-5.7-5.8s2.6-5.8 5.7-5.8h92.3c3.2 0 5.7 2.6 5.7 5.8S349 48 345.8 48zm-92.3-10.5c-2.6 0-4.7 2.1-4.7 4.8s2.1 4.8 4.7 4.8h92.3c2.6 0 4.7-2.1 4.7-4.8s-2.1-4.8-4.7-4.8h-92.3z"/>
  <path opacity=".2" fill-rule="evenodd" clip-rule="evenodd" fill="#FFF" d="M344 45.2c-1.3 0-2.4-1-2.4-2.2 0-1.2 1.1-2.2 2.4-2.2 1.3 0 2.4 1 2.4 2.2 0 1.2-1.1 2.2-2.4 2.2zm-7.3 0c-1.3 0-2.4-1-2.4-2.2 0-1.2 1.1-2.2 2.4-2.2 1.3 0 2.4 1 2.4 2.2 0 1.2-1.1 2.2-2.4 2.2zm-7.4 0c-1.3 0-2.4-1-2.4-2.2 0-1.2 1.1-2.2 2.4-2.2s2.4 1 2.4 2.2c0 1.2-1 2.2-2.4 2.2zm-7.3 0c-1.3 0-2.4-1-2.4-2.2 0-1.2 1.1-2.2 2.4-2.2 1.3 0 2.4 1 2.4 2.2 0 1.2-1.1 2.2-2.4 2.2zm-7.3 0c-1.3 0-2.4-1-2.4-2.2 0-1.2 1.1-2.2 2.4-2.2 1.3 0 2.4 1 2.4 2.2-.1 1.2-1.1 2.2-2.4 2.2zm-7.4 0c-1.3 0-2.4-1-2.4-2.2 0-1.2 1.1-2.2 2.4-2.2 1.3 0 2.4 1 2.4 2.2 0 1.2-1.1 2.2-2.4 2.2zm-7.3 0c-1.3 0-2.4-1-2.4-2.2 0-1.2 1.1-2.2 2.4-2.2 1.3 0 2.4 1 2.4 2.2-.1 1.2-1.1 2.2-2.4 2.2zm-7.4 0c-1.3 0-2.4-1-2.4-2.2 0-1.2 1.1-2.2 2.4-2.2 1.3 0 2.4 1 2.4 2.2 0 1.2-1.1 2.2-2.4 2.2zm-7.3 0c-1.3 0-2.4-1-2.4-2.2 0-1.2 1.1-2.2 2.4-2.2s2.4 1 2.4 2.2c-.1 1.2-1.1 2.2-2.4 2.2zm-7.4 0c-1.3 0-2.4-1-2.4-2.2 0-1.2 1.1-2.2 2.4-2.2 1.3 0 2.4 1 2.4 2.2 0 1.2-1.1 2.2-2.4 2.2zm-7.3 0c-1.3 0-2.4-1-2.4-2.2 0-1.2 1.1-2.2 2.4-2.2 1.3 0 2.4 1 2.4 2.2 0 1.2-1.1 2.2-2.4 2.2zm-7.4 0c-1.3 0-2.4-1-2.4-2.2 0-1.2 1.1-2.2 2.4-2.2 1.3 0 2.4 1 2.4 2.2 0 1.2-1 2.2-2.4 2.2zm-7.3 0c-1.3 0-2.4-1-2.4-2.2 0-1.2 1.1-2.2 2.4-2.2 1.3 0 2.4 1 2.4 2.2 0 1.2-1.1 2.2-2.4 2.2z"/>
  <path fill-rule="evenodd" clip-rule="evenodd" fill="#010101" d="M344 44.5c-1.3 0-2.4-1-2.4-2.2 0-1.2 1.1-2.2 2.4-2.2 1.3 0 2.4 1 2.4 2.2 0 1.2-1.1 2.2-2.4 2.2zm-7.3 0c-1.3 0-2.4-1-2.4-2.2 0-1.2 1.1-2.2 2.4-2.2 1.3 0 2.4 1 2.4 2.2 0 1.2-1.1 2.2-2.4 2.2zm-7.4 0c-1.3 0-2.4-1-2.4-2.2 0-1.2 1.1-2.2 2.4-2.2s2.4 1 2.4 2.2c0 1.2-1 2.2-2.4 2.2zm-7.3 0c-1.3 0-2.4-1-2.4-2.2 0-1.2 1.1-2.2 2.4-2.2 1.3 0 2.4 1 2.4 2.2 0 1.2-1.1 2.2-2.4 2.2zm-7.3 0c-1.3 0-2.4-1-2.4-2.2 0-1.2 1.1-2.2 2.4-2.2 1.3 0 2.4 1 2.4 2.2-.1 1.2-1.1 2.2-2.4 2.2zm-7.4 0c-1.3 0-2.4-1-2.4-2.2 0-1.2 1.1-2.2 2.4-2.2 1.3 0 2.4 1 2.4 2.2 0 1.2-1.1 2.2-2.4 2.2zm-7.3 0c-1.3 0-2.4-1-2.4-2.2 0-1.2 1.1-2.2 2.4-2.2 1.3 0 2.4 1 2.4 2.2-.1 1.2-1.1 2.2-2.4 2.2zm-7.4 0c-1.3 0-2.4-1-2.4-2.2 0-1.2 1.1-2.2 2.4-2.2 1.3 0 2.4 1 2.4 2.2 0 1.2-1.1 2.2-2.4 2.2zm-7.3 0c-1.3 0-2.4-1-2.4-2.2 0-1.2 1.1-2.2 2.4-2.2s2.4 1 2.4 2.2c-.1 1.2-1.1 2.2-2.4 2.2zm-7.4 0c-1.3 0-2.4-1-2.4-2.2 0-1.2 1.1-2.2 2.4-2.2 1.3 0 2.4 1 2.4 2.2 0 1.2-1.1 2.2-2.4 2.2zm-7.3 0c-1.3 0-2.4-1-2.4-2.2 0-1.2 1.1-2.2 2.4-2.2 1.3 0 2.4 1 2.4 2.2 0 1.2-1.1 2.2-2.4 2.2zm-7.4 0c-1.3 0-2.4-1-2.4-2.2 0-1.2 1.1-2.2 2.4-2.2 1.3 0 2.4 1 2.4 2.2 0 1.2-1 2.2-2.4 2.2zm-7.3 0c-1.3 0-2.4-1-2.4-2.2 0-1.2 1.1-2.2 2.4-2.2 1.3 0 2.4 1 2.4 2.2 0 1.2-1.1 2.2-2.4 2.2zm-25.4 36.1l-1.2-.6c-1.6-1.1-3.2-2.5-3.2-3.8 0-2.5 3.6-2.8 3.6.6 0 1.5 1.8 1.3 3 1.3 1.3 0 2.7 0 2.7-1.2 0-1.3.3-6.6-7.4-6.6s-7.4 5.3-7.4 6.8c0 8.2 9.1 6.3 9.1 11.9 0 2.3-3.6 2.9-3.6-.9 0-1.5-1.8-1.1-3-1.1-1.3 0-2.8-.2-2.8 1 0 1.4-.3 7 7.7 7s7.7-5.4 7.7-7c-.1-1.6.4-4.8-5.2-7.4zm22.6-8.4c-.3-1 .2-1.3-4.2-1.3s-4.4.1-4.6 1.4c-.2 1.3-3.4 18.6-3.6 20-.2 1.4-.8 1.8 2.8 1.8 1.9 0 2.7.1 2.9-1.4.2-1.5 2-17.3 2.1-18 .1-.7.5-1.2.7 0 .2 1.2 1.7 16.3 2 17.6.2 1.3 0 1.8 3.1 1.8s2.9-.5 2.7-1.8c-.4-1.2-3.7-19.1-3.9-20.1zm32.8.3c-.2-1.5.1-1.5-4.2-1.5-4.4 0-4.3-.1-4.7 1.8-.3 2-1 8-1.2 9.2-.1 1.2-.7 1.8-1 0-.3-1.8-.9-7-1.3-9s-.2-2-4.4-2-4.6-.3-4.7 2.1c0 2.4-.7 16.5-.7 19.3 0 1.8.1 1.8 2.9 1.8 2.6 0 2.9-.1 2.9-1.3s.1-16.5.1-17.3c0-.9.6-1.1.7.1.2 1.2 1.6 15.6 1.9 17 .3 1.4.7 1.4 3.1 1.4s2.4-.1 2.6-1.5 1.9-15.9 2-16.8c.2-.9.8-1.2.9.1s0 15.1 0 16.6.1 1.5 3.1 1.5 3 0 2.9-1.8c.1-1.7-.7-18.1-.9-19.7zm18.8 8.1l-1.2-.6c-1.6-1.1-3.2-2.5-3.2-3.8 0-2.5 3.6-2.8 3.6.6 0 1.5 1.8 1.3 3 1.3 1.3 0 2.7 0 2.7-1.2 0-1.3.3-6.6-7.4-6.6s-7.4 5.3-7.4 6.8c0 8.2 9.1 6.3 9.1 11.9 0 2.3-3.6 2.9-3.6-.9 0-1.5-1.8-1.1-3-1.1-1.3 0-2.8-.2-2.8 1 0 1.4-.3 7 7.7 7s7.7-5.4 7.7-7c0-1.6.5-4.8-5.2-7.4zm22.7-9.6c-3.1 0-3 0-3 1.6v15.6c0 1.4-.4 2.1-1.6 2.1-1.2 0-1.9-.4-1.9-2.1V72.5c0-1.5-.1-1.6-3-1.6s-3.2 0-3.2 1.6v15.9c0 3.9 2.5 5.8 7.9 5.8s7.8-2.1 7.8-6.1V72.7c.1-1.7.1-1.7-3-1.7zm24.4 0c-2.8 0-2.9 0-2.9 1.3s.1 8.5.1 10.1c0 1.6-.4 1.1-1 0s-4.2-9.2-4.8-10.3c-.6-1.1-1-1.1-3.6-1.1-2.7 0-3.2 0-3.2 1v21.1c0 1.1-.1 1.1 2.8 1.1s2.8 0 2.8-1.4-.1-10.9-.1-11.7c0-.8.4-1.2.9 0s4.7 10.5 5.2 11.6c.8 1.6.7 1.6 3.6 1.6s2.9 0 2.9-1.3V71.8c-.1-.8.1-.8-2.7-.8zm22.6 7.6c3.3 0 3.3 0 3.3-1.5s.5-6.9-7.9-6.9c-8.5 0-8.6 5-8.6 6.8v12.2c0 3.1 2 5.9 8.1 5.9s8.4-2.2 8.4-6v-6.3c0-1.1 0-1.2-2.7-1.2h-3.6c-1.7 0-1.7.1-1.7 1.5s0 2 .8 2 1 .1 1 2.3c0 2.1-.2 3.5-1.7 3.5-2.1 0-2.2-1-2.3-7.5v-6.8c0-2.7 3.9-2.6 3.9 0s-.3 2 3 2z"/>
  <path fill-rule="evenodd" clip-rule="evenodd" fill="#818285" d="M230.5 78.8l-1.2-.6c-1.6-1.1-3.2-2.5-3.2-3.8 0-2.5 3.6-2.8 3.6.6 0 1.5 1.8 1.3 3 1.3 1.3 0 2.7 0 2.7-1.2 0-1.3.3-6.6-7.4-6.6s-7.4 5.3-7.4 6.8c0 8.2 9.1 6.3 9.1 11.9 0 2.3-3.6 2.9-3.6-.9 0-1.5-1.8-1.1-3-1.1-1.3 0-2.8-.2-2.8 1 0 1.4-.3 7 7.7 7s7.7-5.4 7.7-7 .4-4.8-5.2-7.4zm22.6-8.3c-.3-1 .2-1.3-4.2-1.3s-4.4.1-4.6 1.4c-.2 1.3-3.4 18.6-3.6 20-.2 1.4-.8 1.8 2.8 1.8 1.9 0 2.7.1 2.9-1.4.2-1.5 2-17.3 2.1-18 .1-.7.5-1.2.7 0 .2 1.2 1.7 16.3 2 17.6.2 1.3 0 1.8 3.1 1.8s2.9-.5 2.7-1.8c-.4-1.3-3.7-19.2-3.9-20.1zm32.8.3c-.2-1.5.1-1.5-4.2-1.5-4.4 0-4.3-.1-4.7 1.8-.3 2-1 8-1.2 9.2-.1 1.2-.7 1.8-1 0-.3-1.8-.9-7-1.3-9s-.2-2-4.4-2-4.6-.3-4.7 2.1c0 2.4-.7 16.5-.7 19.3 0 1.8.1 1.8 2.9 1.8 2.6 0 2.9-.1 2.9-1.3s.1-16.5.1-17.3c0-.9.6-1.1.7.1.2 1.2 1.6 15.6 1.9 17 .3 1.4.7 1.4 3.1 1.4s2.4-.1 2.6-1.5 1.9-15.9 2-16.8c.2-.9.8-1.2.9.1.1 1.3 0 15.1 0 16.6 0 1.5.1 1.5 3.1 1.5s3 0 2.9-1.8c.1-1.7-.7-18.2-.9-19.7zm18.8 8l-1.2-.6c-1.6-1.1-3.2-2.5-3.2-3.8 0-2.5 3.6-2.8 3.6.6 0 1.5 1.8 1.3 3 1.3 1.3 0 2.7 0 2.7-1.2 0-1.3.3-6.6-7.4-6.6s-7.4 5.3-7.4 6.8c0 8.2 9.1 6.3 9.1 11.9 0 2.3-3.6 2.9-3.6-.9 0-1.5-1.8-1.1-3-1.1-1.3 0-2.8-.2-2.8 1 0 1.4-.3 7 7.7 7s7.7-5.4 7.7-7 .5-4.8-5.2-7.4zm22.7-9.6c-3.1 0-3 0-3 1.6v15.6c0 1.4-.4 2.1-1.6 2.1-1.2 0-1.9-.4-1.9-2.1V70.7c0-1.5-.1-1.6-3-1.6s-3.2 0-3.2 1.6v15.9c0 3.9 2.5 5.8 7.9 5.8s7.8-2.1 7.8-6.1V70.9c.1-1.7.1-1.7-3-1.7zm24.4 0c-2.8 0-2.9 0-2.9 1.3s.1 8.5.1 10.1c0 1.6-.4 1.1-1 0s-4.2-9.2-4.8-10.3c-.6-1.1-1-1.1-3.6-1.1-2.7 0-3.2 0-3.2 1v21.1c0 1.1-.1 1.1 2.8 1.1s2.8 0 2.8-1.4-.1-10.9-.1-11.7c0-.8.4-1.2.9 0s4.7 10.5 5.2 11.6c.8 1.6.7 1.6 3.6 1.6s2.9 0 2.9-1.3V70c-.1-.8.1-.8-2.7-.8zm22.6 7.6c3.3 0 3.3 0 3.3-1.5s.5-6.9-7.9-6.9c-8.5 0-8.6 5-8.6 6.8v12.2c0 3.1 2 5.9 8.1 5.9s8.4-2.2 8.4-6V81c0-1.1 0-1.2-2.7-1.2h-3.6c-1.7 0-1.7.1-1.7 1.5s0 2 .8 2 1 .1 1 2.3-.2 3.5-1.7 3.5c-2.1 0-2.2-1-2.3-7.5v-6.8c0-2.7 3.9-2.6 3.9 0s-.3 2 3 2z"/>
  <g fill-rule="evenodd" clip-rule="evenodd">
    <path fill="#010101" d="M378.3 41.9c4.9 0 8.8 3.9 8.8 8.8s-3.9 8.8-8.8 8.8-8.8-3.9-8.8-8.8 3.9-8.8 8.8-8.8z"/>
    <path opacity=".5" fill="#424143" d="M378.3 44.1c3.7 0 6.6 3 6.6 6.6 0 3.7-3 6.6-6.6 6.6-3.7 0-6.6-3-6.6-6.6 0-3.7 3-6.6 6.6-6.6z"/>
    <path opacity=".5" fill="#010101" d="M378.3 46.3c2.4 0 4.4 2 4.4 4.4 0 2.4-2 4.4-4.4 4.4-2.4 0-4.4-2-4.4-4.4 0-2.5 2-4.4 4.4-4.4z"/>
    <path opacity=".5" fill="#231F20" d="M378.3 46.6c2.2 0 4.1 1.8 4.1 4.1 0 2.2-1.8 4.1-4.1 4.1-2.2 0-4.1-1.8-4.1-4.1s1.9-4.1 4.1-4.1z"/>
    <path opacity=".3" fill="#FFF" d="M378.3 47.3c1.1 0 1.9.5 1.9 1 0 .6-.9 1-1.9 1-1.1 0-1.9-.5-1.9-1s.8-1 1.9-1z"/>
  </g>
  <g fill-rule="evenodd" clip-rule="evenodd">
    <path fill="#010101" d="M401.8 41.9c4.9 0 8.8 3.9 8.8 8.8s-3.9 8.8-8.8 8.8-8.8-3.9-8.8-8.8 3.9-8.8 8.8-8.8z"/>
    <path opacity=".5" fill="#424143" d="M401.8 44.1c3.7 0 6.6 3 6.6 6.6 0 3.7-3 6.6-6.6 6.6-3.7 0-6.6-3-6.6-6.6 0-3.7 2.9-6.6 6.6-6.6z"/>
    <path opacity=".5" fill="#010101" d="M401.8 46.3c2.4 0 4.4 2 4.4 4.4 0 2.4-2 4.4-4.4 4.4-2.4 0-4.4-2-4.4-4.4 0-2.5 2-4.4 4.4-4.4z"/>
    <path opacity=".5" fill="#231F20" d="M401.8 46.6c2.2 0 4.1 1.8 4.1 4.1 0 2.2-1.8 4.1-4.1 4.1-2.2 0-4.1-1.8-4.1-4.1s1.8-4.1 4.1-4.1z"/>
    <path opacity=".3" fill="#FFF" d="M401.8 47.3c1.1 0 1.9.5 1.9 1 0 .6-.9 1-1.9 1-1.1 0-1.9-.5-1.9-1s.8-1 1.9-1z"/>
  </g>
  <path fill-rule="evenodd" clip-rule="evenodd" fill="#010101" d="M511.3 38.7c6.6 0 12 5.4 12 12s-5.4 12-12 12-12-5.4-12-12c0-6.7 5.4-12 12-12z"/>
  <path opacity=".5" fill-rule="evenodd" clip-rule="evenodd" fill="#424143" d="M511.3 41.7c5 0 9 4 9 9s-4 9-9 9-9-4-9-9 4-9 9-9z"/>
  <path opacity=".5" fill-rule="evenodd" clip-rule="evenodd" fill="#010101" d="M511.3 44.7c3.3 0 6 2.7 6 6s-2.7 6-6 6-6-2.7-6-6 2.7-6 6-6z"/>
  <radialGradient id="a" cx="513.584" cy="54.32" r="8.3653" gradientUnits="userSpaceOnUse">
    <stop offset=".0041408" stop-color="#FFF"/>
    <stop offset="1" stop-color="#FFF" stop-opacity="0"/>
  </radialGradient>
  <path opacity=".2" fill-rule="evenodd" clip-rule="evenodd" fill="url(#a)" d="M511.3 46.6c2.3 0 4.1 1.8 4.1 4.1s-1.8 4.1-4.1 4.1-4.1-1.8-4.1-4.1 1.8-4.1 4.1-4.1z"/>
  <path opacity=".3" fill-rule="evenodd" clip-rule="evenodd" fill="#FFF" d="M511.3 47.6c1.1 0 2 .5 2 1.1 0 .6-.9 1.1-2 1.1s-2-.5-2-1.1c0-.6.9-1.1 2-1.1z"/>
</svg>
