<svg xmlns="http://www.w3.org/2000/svg" viewBox="0 0 1184.6 2360">
  <path fill-rule="evenodd" clip-rule="evenodd" fill="#424143" d="M7.8 416.5H39c4.3 0 7.8 3.5 7.8 7.8V779c0 4.3-3.5 7.8-7.8 7.8H7.8c-4.3 0-7.8-3.5-7.8-7.8V424.2c0-4.3 3.5-7.7 7.8-7.7zm1128.7-59.4h44.2c2.2 0 3.9 1.7 3.9 3.9v143.5c0 2.2-1.7 3.9-3.9 3.9h-44.2V357.1z"/>
  <path fill-rule="evenodd" clip-rule="evenodd" fill="#030303" d="M11.1 129.1v2100.8s.6 14.9 6 31.1c20.7 62.7 103.1 68.8 134.4 73.2 166.2 23.5 436.1 21.7 436.1 21.7s237.7 9.9 448-21.1c32.3-4.8 122.7-20.6 134.4-73.9 3.6-16.6 5.8-31 5.8-31V129.1s-2.3-30.2-7-43.2c-23.3-65.2-185.2-65-265.8-72.3C774.4 1.9 593.5 2.5 593.5 2.5s-201.1 4-320.2 12.4C100.3 27 37.9 37.4 17.9 85.3c-5.9 14-6.8 43.8-6.8 43.8z"/>
  <path opacity=".2" fill="#FFF" d="M598 12.5c30.5 0 188.4.5 304.2 11.1 12.1 1.1 26 2 40.7 3 41.5 2.8 93.1 6.2 135.6 15.7 46.3 10.4 73.5 26.2 81 47 3.4 9.5 5.7 31.9 6.4 40.2v2099.6c-.5 3.1-2.5 15.7-5.6 29.7-4.2 19.4-22.2 35.6-53.4 48-19.8 7.9-43.6 13.8-72.7 18.1-126.2 18.6-262.2 22.5-354.1 22.5-50.7 0-85.3-1.2-91.8-1.5h-13.5c-63 0-279.7-1.6-422-21.7-2.3-.3-4.8-.7-7.5-1-17.2-2.2-43.2-5.6-66.9-15.3-27.4-11.2-44.3-27.6-51.8-50.1-4.5-13.7-5.4-26.7-5.5-28.2V129.3c.2-7.9 1.8-30.1 6-40.1C36 68 54.4 55.6 90.7 46.3c39.2-10 99.2-15.6 183.3-21.5 116.5-8.2 314.6-12.2 319.6-12.3h4.4m0-10h-4.6s-201.1 4-320.2 12.4C100.3 27 37.9 37.4 17.9 85.3c-5.9 14-6.7 43.9-6.7 43.9V2230s.6 14.9 6 31.1c20.7 62.7 103.1 68.8 134.4 73.2 144.7 20.4 368 21.8 423.4 21.8h12.8c.2 0 36.2 1.5 92.4 1.5 88.5 0 227.1-3.7 355.6-22.6 32.3-4.8 122.7-20.6 134.4-73.9 3.6-16.6 5.8-31 5.8-31v-2101s-2.3-30.2-7-43.2c-23.3-65.2-185.2-65-265.8-72.3C786.4 3 626.8 2.5 598 2.5z"/>
  <path fill="#818285" d="M680.1 2360c-50.9 0-85.8-1.2-92.2-1.5h-13c-63.2 0-280.6-1.6-423.7-21.8-2.2-.3-4.7-.6-7.4-1-35.5-4.6-109.2-14.2-129-73.9-5.4-16.4-6.1-31.2-6.1-31.8V129.1c0-1.3 1-30.5 6.9-44.8 10.4-24.9 32-39.9 72-50.1C127.7 24 188.3 18.3 273.1 12.4 390.8 4.1 591.4 0 593.4 0h4.6c30.6 0 189 .5 305.3 11.1 11.9 1.1 25.8 2 40.4 3 87.4 5.9 207 13.9 227.5 71 4.7 13.1 7 42.6 7.1 43.9v2101.4c0 .1-2.2 14.7-5.9 31.2-8.2 37.6-55.4 63.9-136.5 75.8-126.8 18.7-263.5 22.6-355.8 22.6zm-92.5-6.5h.4c6.5.2 41.3 1.5 92 1.5 92.2 0 228.6-3.9 355.2-22.6 78.8-11.6 124.6-36.5 132.3-71.9 3.4-15.3 5.5-29 5.8-30.7V129.2c-.1-1.9-2.5-30.3-6.8-42.5-8.5-23.7-36.8-40.6-86.4-51.8-43-9.6-95-13.1-136.7-15.9-14.7-1-28.6-1.9-40.5-3C786.8 5.5 628.5 5 598 5h-4.5c-2 0-202.4 4.1-320 12.3C97.1 29.7 39.2 40.8 20.2 86.2c-5.6 13.4-6.5 42.7-6.6 43v2100.7c0 .8.8 15.1 5.8 30.3 18.8 56.8 90.4 66.1 124.9 70.5 2.7.4 5.2.7 7.5 1 142.8 20.2 359.9 21.7 423 21.7 8.3.1 12.8.1 12.8.1z"/>
  <path fill-rule="evenodd" clip-rule="evenodd" fill="#231F20" d="M53.5 220h1080v1920H53.5V220z"/>
  <path fill="#010101" d="M1133.5 220v1920H53.5V220h1080m0-3H53.5c-1.7 0-3 1.3-3 3v1920c0 1.7 1.3 3 3 3h1080c1.7 0 3-1.3 3-3V220c0-1.7-1.3-3-3-3z"/>
  <g fill-rule="evenodd" clip-rule="evenodd">
    <path opacity=".2" fill="#FFF" d="M121.6 123.5c8.4 0 15.2 6.8 15.2 15.2 0 8.4-6.8 15.2-15.2 15.2-8.4 0-15.2-6.8-15.2-15.2.1-8.4 6.8-15.2 15.2-15.2z"/>
    <path fill="#010101" d="M121.6 122c8.4 0 15.2 6.8 15.2 15.2 0 8.4-6.8 15.2-15.2 15.2-8.4 0-15.2-6.8-15.2-15.2.1-8.4 6.8-15.2 15.2-15.2z"/>
    <path fill="#231F20" d="M121.6 129.6c4.2 0 7.6 3.4 7.6 7.6 0 4.2-3.4 7.6-7.6 7.6-4.2 0-7.6-3.4-7.6-7.6 0-4.2 3.4-7.6 7.6-7.6z"/>
    <path fill="#FFF" d="M121.6 131.4c1.9 0 3.5.8 3.5 1.8s-1.6 1.8-3.5 1.8-3.5-.8-3.5-1.8 1.6-1.8 3.5-1.8z"/>
  </g>
  <g fill-rule="evenodd" clip-rule="evenodd">
    <path opacity=".2" fill="#FFF" d="M593.5 104.2c15.5 0 28.1 12.6 28.1 28.1 0 15.5-12.8 28.2-28.1 28.1-15.5 0-28.1-12.6-28.1-28.1 0-15.5 12.6-28.1 28.1-28.1z"/>
    <path fill="#0B0C0C" d="M593.5 102.3c15.5 0 28.1 12.6 28.1 28.1 0 15.5-12.6 28.1-28.1 28.1-15.5 0-28.1-12.6-28.1-28.1 0-15.5 12.6-28.1 28.1-28.1z"/>
    <path fill="#FFF" d="M574 129.9c-1.1 0-1.9.9-1.9 1.9 0 1.1.9 1.9 1.9 1.9 1.1 0 1.9-.9 1.9-1.9.1-1.1-.8-1.9-1.9-1.9zm7.8 0c-1.1 0-1.9.9-1.9 1.9 0 1.1.9 1.9 1.9 1.9s1.9-.9 1.9-1.9c.1-1.1-.8-1.9-1.9-1.9zm7.8 0c-1.1 0-1.9.9-1.9 1.9 0 1.1.9 1.9 1.9 1.9 1.1 0 1.9-.9 1.9-1.9 0-1.1-.8-1.9-1.9-1.9zm7.8 0c-1.1 0-1.9.9-1.9 1.9 0 1.1.9 1.9 1.9 1.9s1.9-.9 1.9-1.9c0-1.1-.8-1.9-1.9-1.9zm7.8 0c-1.1 0-1.9.9-1.9 1.9 0 1.1.9 1.9 1.9 1.9s1.9-.9 1.9-1.9c0-1.1-.8-1.9-1.9-1.9zm7.8 0c-1.1 0-1.9.9-1.9 1.9 0 1.1.9 1.9 1.9 1.9 1.1 0 1.9-.9 1.9-1.9 0-1.1-.9-1.9-1.9-1.9zm-19.5-15.6c1.1 0 1.9-.9 1.9-1.9 0-1.1-.9-1.9-1.9-1.9s-1.9.9-1.9 1.9c-.1 1 .8 1.9 1.9 1.9zm0 7.8c1.1 0 1.9-.9 1.9-1.9 0-1.1-.9-1.9-1.9-1.9s-1.9.9-1.9 1.9c-.1 1 .8 1.9 1.9 1.9zm0 7.8c1.1 0 1.9-.9 1.9-1.9 0-1.1-.9-1.9-1.9-1.9s-1.9.9-1.9 1.9c-.1 1 .8 1.9 1.9 1.9zm0 3.9c-1.1 0-1.9.9-1.9 1.9 0 1.1.9 1.9 1.9 1.9s1.9-.9 1.9-1.9c0-1.1-.8-1.9-1.9-1.9zm0 7.7c-1.1 0-1.9.9-1.9 1.9 0 1.1.9 1.9 1.9 1.9s1.9-.9 1.9-1.9c0-1-.8-1.9-1.9-1.9zm0 7.8c-1.1 0-1.9.9-1.9 1.9s.9 1.9 1.9 1.9 1.9-.9 1.9-1.9-.8-1.9-1.9-1.9zm-6.9-24.4c.8-.8.8-2 0-2.8-.8-.8-2-.8-2.8 0-.8.8-.8 2 0 2.8.8.8 2 .8 2.8 0zm13.8 13.8c-.8.8-.8 2 0 2.8.8.8 2 .8 2.8 0 .8-.8.8-2 0-2.8-.8-.8-2.1-.8-2.8 0zm-13.8 2.9c.8-.8.8-2 0-2.8-.8-.8-2-.8-2.8 0-.8.8-.8 2 0 2.8.8.7 2 .7 2.8 0zm13.8-19.3c-.8.8-.8 2 0 2.8.8.8 2 .8 2.8 0 .8-.8.8-2 0-2.8-.8-.8-2.1-.8-2.8 0zm.9 23.1c-1.1 0-1.9.9-1.9 1.9s.9 1.9 1.9 1.9c1.1 0 1.9-.9 1.9-1.9s-.8-1.9-1.9-1.9zm7.8-7.7c-1.1 0-1.9.9-1.9 1.9 0 1.1.9 1.9 1.9 1.9 1.1 0 1.9-.9 1.9-1.9 0-1.1-.8-1.9-1.9-1.9zm0-11.7c1.1 0 1.9-.9 1.9-1.9 0-1.1-.9-1.9-1.9-1.9-1.1 0-1.9.9-1.9 1.9-.1 1 .8 1.9 1.9 1.9zm-7.8-7.8c1.1 0 1.9-.9 1.9-1.9 0-1.1-.9-1.9-1.9-1.9-1.1 0-1.9.9-1.9 1.9-.1 1 .8 1.9 1.9 1.9zm-15.6 0c1.1 0 1.9-.9 1.9-1.9 0-1.1-.9-1.9-1.9-1.9-1.1 0-1.9.9-1.9 1.9 0 1 .8 1.9 1.9 1.9zm-7.8 7.8c1.1 0 1.9-.9 1.9-1.9 0-1.1-.9-1.9-1.9-1.9-1.1 0-1.9.9-1.9 1.9 0 1 .8 1.9 1.9 1.9zm0 11.7c-1.1 0-1.9.9-1.9 1.9 0 1.1.9 1.9 1.9 1.9 1.1 0 1.9-.9 1.9-1.9.1-1.1-.8-1.9-1.9-1.9zm7.8 7.7c-1.1 0-1.9.9-1.9 1.9s.9 1.9 1.9 1.9c1.1 0 1.9-.9 1.9-1.9s-.8-1.9-1.9-1.9z" opacity=".2"/>
    <path fill="#010101" d="M574 128.5c-1.1 0-1.9.9-1.9 1.9 0 1.1.9 1.9 1.9 1.9 1.1 0 1.9-.9 1.9-1.9.1-1.1-.8-1.9-1.9-1.9zm7.8 0c-1.1 0-1.9.9-1.9 1.9 0 1.1.9 1.9 1.9 1.9s1.9-.9 1.9-1.9c.1-1.1-.8-1.9-1.9-1.9zm7.8 0c-1.1 0-1.9.9-1.9 1.9 0 1.1.9 1.9 1.9 1.9 1.1 0 1.9-.9 1.9-1.9 0-1.1-.8-1.9-1.9-1.9zm7.8 0c-1.1 0-1.9.9-1.9 1.9 0 1.1.9 1.9 1.9 1.9s1.9-.9 1.9-1.9c0-1.1-.8-1.9-1.9-1.9zm7.8 0c-1.1 0-1.9.9-1.9 1.9 0 1.1.9 1.9 1.9 1.9s1.9-.9 1.9-1.9c0-1.1-.8-1.9-1.9-1.9zm7.8 0c-1.1 0-1.9.9-1.9 1.9 0 1.1.9 1.9 1.9 1.9 1.1 0 1.9-.9 1.9-1.9 0-1.1-.9-1.9-1.9-1.9zm-19.5-15.6c1.1 0 1.9-.9 1.9-1.9 0-1.1-.9-1.9-1.9-1.9s-1.9.9-1.9 1.9c-.1 1 .8 1.9 1.9 1.9zm0 7.8c1.1 0 1.9-.9 1.9-1.9 0-1.1-.9-1.9-1.9-1.9s-1.9.9-1.9 1.9c-.1 1 .8 1.9 1.9 1.9zm0 7.8c1.1 0 1.9-.9 1.9-1.9s-.9-1.9-1.9-1.9-1.9.9-1.9 1.9.8 1.9 1.9 1.9zm0 3.9c-1.1 0-1.9.9-1.9 1.9 0 1.1.9 1.9 1.9 1.9s1.9-.9 1.9-1.9c0-1.1-.8-1.9-1.9-1.9zm0 7.8c-1.1 0-1.9.9-1.9 1.9s.9 1.9 1.9 1.9 1.9-.9 1.9-1.9-.8-1.9-1.9-1.9zm0 7.8c-1.1 0-1.9.9-1.9 1.9 0 1.1.9 1.9 1.9 1.9s1.9-.9 1.9-1.9c0-1.1-.8-1.9-1.9-1.9zm-6.9-24.5c.8-.8.8-2 0-2.8-.8-.8-2-.8-2.8 0-.8.8-.8 2 0 2.8.8.8 2 .8 2.8 0zm13.8 13.8c-.8.8-.8 2 0 2.8.8.8 2 .8 2.8 0 .8-.8.8-2 0-2.8-.8-.7-2.1-.7-2.8 0zm-13.8 2.9c.8-.8.8-2 0-2.8-.8-.8-2-.8-2.8 0-.8.8-.8 2 0 2.8.8.8 2 .8 2.8 0zm13.8-19.3c-.8.8-.8 2 0 2.8.8.8 2 .8 2.8 0 .8-.8.8-2 0-2.8-.8-.8-2.1-.8-2.8 0zm.9 23.2c-1.1 0-1.9.9-1.9 1.9s.9 1.9 1.9 1.9c1.1 0 1.9-.9 1.9-1.9s-.8-1.9-1.9-1.9zm7.8-7.8c-1.1 0-1.9.9-1.9 1.9 0 1.1.9 1.9 1.9 1.9 1.1 0 1.9-.9 1.9-1.9 0-1.1-.8-1.9-1.9-1.9zm0-11.7c1.1 0 1.9-.9 1.9-1.9s-.9-1.9-1.9-1.9c-1.1 0-1.9.9-1.9 1.9s.8 1.9 1.9 1.9zm-7.8-7.8c1.1 0 1.9-.9 1.9-1.9 0-1.1-.9-1.9-1.9-1.9-1.1 0-1.9.9-1.9 1.9-.1 1 .8 1.9 1.9 1.9zm-15.6 0c1.1 0 1.9-.9 1.9-1.9 0-1.1-.9-1.9-1.9-1.9-1.1 0-1.9.9-1.9 1.9 0 1 .8 1.9 1.9 1.9zm-7.8 7.8c1.1 0 1.9-.9 1.9-1.9s-.9-1.9-1.9-1.9c-1.1 0-1.9.9-1.9 1.9s.8 1.9 1.9 1.9zm0 11.7c-1.1 0-1.9.9-1.9 1.9 0 1.1.9 1.9 1.9 1.9 1.1 0 1.9-.9 1.9-1.9.1-1.1-.8-1.9-1.9-1.9zm7.8 7.8c-1.1 0-1.9.9-1.9 1.9s.9 1.9 1.9 1.9c1.1 0 1.9-.9 1.9-1.9s-.8-1.9-1.9-1.9z"/>
  </g>
</svg>
